<svg width="18" height="18" viewBox="0 0 18 18" fill="none" xmlns="http://www.w3.org/2000/svg">
<g clip-path="url(#clip0_93_18)">
<path d="M0.821289 7.47758H16.7546M5.07018 4.82203V1.10425M12.5057 4.82203V1.10425M15.6924 3.22869H1.88351C1.60179 3.22869 1.33161 3.34061 1.13241 3.53981C0.933202 3.73902 0.821289 4.0092 0.821289 4.29092V15.9754C0.821289 16.2571 0.933202 16.5273 1.13241 16.7265C1.33161 16.9257 1.60179 17.0376 1.88351 17.0376H15.6924C15.9741 17.0376 16.2443 16.9257 16.4435 16.7265C16.6427 16.5273 16.7546 16.2571 16.7546 15.9754V4.29092C16.7546 4.0092 16.6427 3.73902 16.4435 3.53981C16.2443 3.34061 15.9741 3.22869 15.6924 3.22869Z" stroke="white" stroke-width="1.27467" stroke-linecap="round" stroke-linejoin="round"/>
<path d="M4.27337 10.6643C4.20294 10.6643 4.13539 10.6363 4.08559 10.5865C4.03579 10.5367 4.00781 10.4692 4.00781 10.3987C4.00781 10.3283 4.03579 10.2608 4.08559 10.211C4.13539 10.1612 4.20294 10.1332 4.27337 10.1332M4.27337 10.6643C4.3438 10.6643 4.41134 10.6363 4.46114 10.5865C4.51095 10.5367 4.53892 10.4692 4.53892 10.3987C4.53892 10.3283 4.51095 10.2608 4.46114 10.211C4.41134 10.1612 4.3438 10.1332 4.27337 10.1332M4.27337 14.3821C4.20294 14.3821 4.13539 14.3541 4.08559 14.3043C4.03579 14.2545 4.00781 14.1869 4.00781 14.1165C4.00781 14.0461 4.03579 13.9785 4.08559 13.9287C4.13539 13.8789 4.20294 13.851 4.27337 13.851M4.27337 14.3821C4.3438 14.3821 4.41134 14.3541 4.46114 14.3043C4.51095 14.2545 4.53892 14.1869 4.53892 14.1165C4.53892 14.0461 4.51095 13.9785 4.46114 13.9287C4.41134 13.8789 4.3438 13.851 4.27337 13.851M8.78782 10.6643C8.71739 10.6643 8.64984 10.6363 8.60004 10.5865C8.55024 10.5367 8.52226 10.4692 8.52226 10.3987C8.52226 10.3283 8.55024 10.2608 8.60004 10.211C8.64984 10.1612 8.71739 10.1332 8.78782 10.1332M8.78782 10.6643C8.85824 10.6643 8.92579 10.6363 8.97559 10.5865C9.02539 10.5367 9.05337 10.4692 9.05337 10.3987C9.05337 10.3283 9.02539 10.2608 8.97559 10.211C8.92579 10.1612 8.85824 10.1332 8.78782 10.1332M8.78782 14.3821C8.71739 14.3821 8.64984 14.3541 8.60004 14.3043C8.55024 14.2545 8.52226 14.1869 8.52226 14.1165C8.52226 14.0461 8.55024 13.9785 8.60004 13.9287C8.64984 13.8789 8.71739 13.851 8.78782 13.851M8.78782 14.3821C8.85824 14.3821 8.92579 14.3541 8.97559 14.3043C9.02539 14.2545 9.05337 14.1869 9.05337 14.1165C9.05337 14.0461 9.02539 13.9785 8.97559 13.9287C8.92579 13.8789 8.85824 13.851 8.78782 13.851M13.3023 10.6643C13.2318 10.6643 13.1643 10.6363 13.1145 10.5865C13.0647 10.5367 13.0367 10.4692 13.0367 10.3987C13.0367 10.3283 13.0647 10.2608 13.1145 10.211C13.1643 10.1612 13.2318 10.1332 13.3023 10.1332M13.3023 10.6643C13.3727 10.6643 13.4402 10.6363 13.49 10.5865C13.5398 10.5367 13.5678 10.4692 13.5678 10.3987C13.5678 10.3283 13.5398 10.2608 13.49 10.211C13.4402 10.1612 13.3727 10.1332 13.3023 10.1332M13.3023 14.3821C13.2318 14.3821 13.1643 14.3541 13.1145 14.3043C13.0647 14.2545 13.0367 14.1869 13.0367 14.1165C13.0367 14.0461 13.0647 13.9785 13.1145 13.9287C13.1643 13.8789 13.2318 13.851 13.3023 13.851M13.3023 14.3821C13.3727 14.3821 13.4402 14.3541 13.49 14.3043C13.5398 14.2545 13.5678 14.1869 13.5678 14.1165C13.5678 14.0461 13.5398 13.9785 13.49 13.9287C13.4402 13.8789 13.3727 13.851 13.3023 13.851" stroke="white" stroke-width="1.27467"/>
</g>
<defs>
<clipPath id="clip0_93_18">
<rect width="16.9956" height="16.9956" fill="white" transform="translate(0.290039 0.573242)"/>
</clipPath>
</defs>
</svg>
