<svg width="32" height="32" viewBox="0 0 32 32" fill="none" xmlns="http://www.w3.org/2000/svg">
<path d="M8.06017 11.014C8.29884 9.07628 9.23786 7.29271 10.7003 5.99931C12.1628 4.70591 14.0478 3.99196 16.0002 3.99196C17.9525 3.99196 19.8375 4.70591 21.3 5.99931C22.7625 7.29271 23.7015 9.07628 23.9402 11.014C25.6247 11.1247 27.2001 11.8864 28.333 13.138C29.4659 14.3896 30.0674 16.0329 30.0103 17.7201C29.9531 19.4073 29.2418 21.0061 28.0267 22.1782C26.8117 23.3502 25.1884 24.0036 23.5002 24H8.50017C6.81199 24.0036 5.18863 23.3502 3.97361 22.1782C2.75858 21.0061 2.04723 19.4073 1.99006 17.7201C1.93289 16.0329 2.5344 14.3896 3.6673 13.138C4.8002 11.8864 6.37561 11.1247 8.06017 11.014Z" fill="url(#paint0_linear_133_291)"/>
<path d="M15 17.5C15 19.2239 14.3152 20.8772 13.0962 22.0962C11.8772 23.3152 10.2239 24 8.5 24C6.77609 24 5.12279 23.3152 3.90381 22.0962C2.68482 20.8772 2 19.2239 2 17.5C2 15.7761 2.68482 14.1228 3.90381 12.9038C5.12279 11.6848 6.77609 11 8.5 11C10.2239 11 11.8772 11.6848 13.0962 12.9038C14.3152 14.1228 15 15.7761 15 17.5Z" fill="url(#paint1_linear_133_291)" fill-opacity="0.3"/>
<path d="M16.0001 20C17.5402 19.9998 19.0475 19.5551 20.3411 18.7191C21.6346 17.8832 22.6594 16.6917 23.2923 15.2876C23.9252 13.8835 24.1394 12.3266 23.9091 10.8038C23.6788 9.28095 23.0139 7.85698 21.9941 6.70284C20.9743 5.54869 19.643 4.71346 18.1601 4.29741C16.6772 3.88137 15.1058 3.90222 13.6345 4.35744C12.1631 4.81267 10.8545 5.68292 9.86567 6.86371C8.87685 8.04449 8.24988 9.4856 8.06006 11.014C8.20673 11.0047 8.35339 11 8.50006 11C9.5584 10.9998 10.6008 11.258 11.5367 11.7521C12.4726 12.2463 13.2736 12.9616 13.8702 13.8357C14.4669 14.7099 14.841 15.7165 14.9602 16.7681C15.0794 17.8197 14.9399 18.8845 14.5541 19.87C15.0247 19.9567 15.5067 20 16.0001 20Z" fill="url(#paint2_linear_133_291)" fill-opacity="0.3"/>
<path d="M16.0001 20C17.5402 19.9998 19.0475 19.5551 20.3411 18.7191C21.6346 17.8832 22.6594 16.6917 23.2923 15.2876C23.9252 13.8835 24.1394 12.3266 23.9091 10.8038C23.6788 9.28095 23.0139 7.85698 21.9941 6.70284C20.9743 5.54869 19.643 4.71346 18.1601 4.29741C16.6772 3.88137 15.1058 3.90222 13.6345 4.35744C12.1631 4.81267 10.8545 5.68292 9.86567 6.86371C8.87685 8.04449 8.24988 9.4856 8.06006 11.014C8.20673 11.0047 8.35339 11 8.50006 11C9.5584 10.9998 10.6008 11.258 11.5367 11.7521C12.4726 12.2463 13.2736 12.9616 13.8702 13.8357C14.4669 14.7099 14.841 15.7165 14.9602 16.7681C15.0794 17.8197 14.9399 18.8845 14.5541 19.87C15.0247 19.9567 15.5067 20 16.0001 20Z" fill="url(#paint3_radial_133_291)"/>
<path d="M8.06017 11.014C8.29884 9.07628 9.23786 7.29271 10.7003 5.99931C12.1628 4.70591 14.0478 3.99196 16.0002 3.99196C17.9525 3.99196 19.8375 4.70591 21.3 5.99931C22.7625 7.29271 23.7015 9.07628 23.9402 11.014C25.6247 11.1247 27.2001 11.8864 28.333 13.138C29.4659 14.3896 30.0674 16.0329 30.0103 17.7201C29.9531 19.4073 29.2418 21.0061 28.0267 22.1782C26.8117 23.3502 25.1884 24.0036 23.5002 24H8.50017C6.81199 24.0036 5.18863 23.3502 3.97361 22.1782C2.75858 21.0061 2.04723 19.4073 1.99006 17.7201C1.93289 16.0329 2.5344 14.3896 3.6673 13.138C4.8002 11.8864 6.37561 11.1247 8.06017 11.014Z" fill="url(#paint4_radial_133_291)" fill-opacity="0.5"/>
<defs>
<linearGradient id="paint0_linear_133_291" x1="3.00017" y1="7.75" x2="15.8962" y2="26.508" gradientUnits="userSpaceOnUse">
<stop stop-color="#0FAFFF"/>
<stop offset="1" stop-color="#367AF2"/>
</linearGradient>
<linearGradient id="paint1_linear_133_291" x1="2" y1="13.226" x2="10.764" y2="20.984" gradientUnits="userSpaceOnUse">
<stop stop-color="white"/>
<stop offset="1" stop-color="#FCFCFC" stop-opacity="0"/>
</linearGradient>
<linearGradient id="paint2_linear_133_291" x1="10.8241" y1="4.9" x2="12.9401" y2="15.93" gradientUnits="userSpaceOnUse">
<stop stop-color="white"/>
<stop offset="1" stop-color="#FCFCFC" stop-opacity="0"/>
</linearGradient>
<radialGradient id="paint3_radial_133_291" cx="0" cy="0" r="1" gradientUnits="userSpaceOnUse" gradientTransform="translate(8.68406 17.1) rotate(-22.9258) scale(9.75512 8.72036)">
<stop offset="0.412" stop-color="#2C87F5"/>
<stop offset="1" stop-color="#2C87F5" stop-opacity="0"/>
</radialGradient>
<radialGradient id="paint4_radial_133_291" cx="0" cy="0" r="1" gradientUnits="userSpaceOnUse" gradientTransform="translate(14.8342 2.75001) rotate(64.0336) scale(24.6472 175.754)">
<stop offset="0.5" stop-color="#DD3CE2" stop-opacity="0"/>
<stop offset="1" stop-color="#DD3CE2"/>
</radialGradient>
</defs>
</svg>
