<svg width="32" height="32" viewBox="0 0 32 32" fill="none" xmlns="http://www.w3.org/2000/svg">
<g clip-path="url(#clip0_202_610)">
<path d="M28.3341 9.66668H26.3341M5.6674 9.66668H7.6674M17.0007 -1.66666V0.333343M8.98673 1.65334L10.4001 3.06801M25.0141 1.65334L23.5994 3.06801M17.8747 5.28468C11.9954 10.4167 5.6654 16.8713 3.41673 19.198C2.89007 19.7427 2.72207 20.5367 3.0254 21.23C3.19073 21.6067 3.38607 22.018 3.58807 22.368C3.79007 22.718 4.04873 23.0927 4.29273 23.424C4.74073 24.034 5.51273 24.2847 6.2474 24.1013C9.38673 23.3167 18.1421 21.0627 25.5261 18.5373" stroke="#306279" stroke-width="1.5" stroke-linecap="round" stroke-linejoin="round"/>
<path d="M14.4092 8.46202C14.4092 8.46202 15.8032 9.85669 18.1665 13.95C20.5298 18.0434 21.0405 19.948 21.0405 19.948M15.1318 21.9047L15.5278 23.3834C15.6318 23.7716 15.6583 24.1766 15.6058 24.5751C15.5533 24.9736 15.4229 25.3579 15.2219 25.706C15.0209 26.0541 14.7533 26.3592 14.4343 26.6039C14.1154 26.8486 13.7514 27.028 13.3632 27.132C12.9749 27.236 12.5699 27.2625 12.1714 27.21C11.7729 27.1575 11.3886 27.0271 11.0405 26.8261C10.6924 26.6251 10.3873 26.3575 10.1426 26.0385C9.89796 25.7196 9.7185 25.3556 9.61449 24.9674L9.28516 23.7354M17.3652 4.40002C17.3652 4.40002 18.9632 6.14736 22.1425 11.6547C25.3218 17.162 26.0365 19.4194 26.0365 19.4194" stroke="#306279" stroke-width="1.5" stroke-linecap="round" stroke-linejoin="round"/>
</g>
<defs>
<clipPath id="clip0_202_610">
<rect width="32" height="32" fill="white"/>
</clipPath>
</defs>
</svg>
