<svg width="24" height="20" viewBox="0 0 24 20" fill="none" xmlns="http://www.w3.org/2000/svg">
<path d="M2.15467 19.3334C1.54044 19.3334 1.028 19.128 0.617333 18.7174C0.206667 18.3067 0.000888889 17.7938 0 17.1787V2.82135C0 2.20713 0.205778 1.69469 0.617333 1.28402C1.02889 0.873353 1.54089 0.667576 2.15333 0.666687H21.8467C22.46 0.666687 22.972 0.872465 23.3827 1.28402C23.7933 1.69558 23.9991 2.20802 24 2.82135V17.18C24 17.7934 23.7942 18.3058 23.3827 18.7174C22.9711 19.1289 22.4591 19.3342 21.8467 19.3334H2.15467ZM12 10.1547L1.33333 3.18002V17.18C1.33333 17.4191 1.41022 17.6156 1.564 17.7694C1.71778 17.9231 1.91467 18 2.15467 18H21.8467C22.0858 18 22.2822 17.9231 22.436 17.7694C22.5898 17.6156 22.6667 17.4187 22.6667 17.1787V3.17869L12 10.1547ZM12 8.66669L22.256 2.00002H1.744L12 8.66669ZM1.33333 3.18002V2.00002V17.18C1.33333 17.4191 1.41022 17.6156 1.564 17.7694C1.71778 17.9231 1.91467 18 2.15467 18H1.33333V3.18002Z" fill="white"/>
</svg>
