<svg width="24" height="24" viewBox="0 0 24 24" fill="none" xmlns="http://www.w3.org/2000/svg">
<path d="M1.86008 10.131L13.8691 22.14C13.975 22.2458 14.1102 22.3175 14.2572 22.3459C14.4043 22.3742 14.5564 22.3579 14.6941 22.299L20.6341 19.755C20.7466 19.7066 20.8456 19.6314 20.9224 19.5359C20.9992 19.4404 21.0514 19.3276 21.0744 19.2073C21.0975 19.087 21.0908 18.9628 21.0548 18.8457C21.0188 18.7286 20.9547 18.6221 20.8681 18.5355L17.2621 14.928C17.1509 14.8167 17.0074 14.7431 16.8521 14.7178C16.6968 14.6925 16.5374 14.7167 16.3966 14.787L14.7586 15.606L8.39258 9.24L9.21308 7.602C9.28354 7.46133 9.30799 7.30207 9.28295 7.14675C9.25792 6.99142 9.18467 6.8479 9.07358 6.7365L5.46458 3.1305C5.37787 3.04389 5.27126 2.97985 5.15407 2.94399C5.03688 2.90812 4.91269 2.90151 4.79236 2.92475C4.67203 2.94799 4.55922 3.00036 4.46382 3.07728C4.36841 3.1542 4.29331 3.25333 4.24508 3.366L1.69958 9.306C1.6407 9.44367 1.62438 9.59582 1.65271 9.74286C1.68105 9.88989 1.75275 10.0251 1.85858 10.131H1.86008ZM3.27758 9.429L5.18858 4.974L7.63058 7.4175L7.05308 8.571L6.57008 9.537L7.33358 10.302L13.6981 16.6665L14.4631 17.4315L15.4291 16.947L16.5841 16.371L19.0261 18.8115L14.5711 20.721L3.27758 9.429ZM12.0001 7.5V6C13.5914 6 15.1175 6.63214 16.2427 7.75736C17.3679 8.88258 18.0001 10.4087 18.0001 12H16.5001C16.5001 10.8065 16.026 9.66193 15.1821 8.81802C14.3381 7.97411 13.1936 7.5 12.0001 7.5ZM12.0001 3V1.5C14.7849 1.5 17.4556 2.60625 19.4247 4.57538C21.3938 6.54451 22.5001 9.21523 22.5001 12H21.0001C21.0001 9.61305 20.0519 7.32387 18.364 5.63604C16.6762 3.94821 14.387 3 12.0001 3Z" fill="#1F1416"/>
</svg>
