<svg width="36" height="36" viewBox="0 0 36 36" fill="none" xmlns="http://www.w3.org/2000/svg">
<path fill-rule="evenodd" clip-rule="evenodd" d="M3 4.5V25.5H15.0284C15.0094 25.2505 15 25.0003 15 24.75C15 23.9756 15.0902 23.2222 15.2609 22.5H6.00002V9L16.5 18.0712L27 9V15.2609C28.0646 15.5126 29.0789 15.9426 30 16.5327V4.5H3ZM24.375 7.50002L16.5 14.25L8.625 7.50002H24.375ZM28.7454 30.6203L29.0585 32.3571C27.7555 32.7857 26.4273 33 25.0739 33C22.5831 33 20.5566 32.2744 18.9944 30.8233C17.3315 29.2895 16.5 27.2594 16.5 24.7331C16.5 22.3496 17.2883 20.391 18.8648 18.8571C20.4918 17.2857 22.5543 16.5 25.0523 16.5C27.3128 16.5 29.181 17.109 30.6567 18.3271C31.391 18.9361 31.9633 19.6842 32.3737 20.5714C32.7912 21.4887 33 22.5 33 23.6052C33 25.3571 32.514 26.7556 31.5422 27.8007C30.6711 28.7331 29.6885 29.1992 28.5942 29.1992C27.428 29.1992 26.7873 28.6692 26.6721 27.609C25.9522 28.6692 24.9803 29.1992 23.7565 29.1992C22.7703 29.1992 21.9892 28.9135 21.4132 28.3421C20.787 27.7256 20.4738 26.8797 20.4738 25.8045C20.4738 25.0902 20.616 24.3891 20.9004 23.7011C21.1847 23.0132 21.5788 22.4173 22.0827 21.9135C23.0402 20.9587 24.2712 20.4812 25.7758 20.4812C26.9133 20.4812 27.9751 20.6654 28.9613 21.0338L28.2379 25.7256C28.1659 26.1842 28.1299 26.5188 28.1299 26.7293C28.1299 27.2481 28.3495 27.5075 28.7886 27.5075C29.3645 27.5075 29.8792 27.1579 30.3328 26.4587C30.8871 25.609 31.1642 24.6015 31.1642 23.4361C31.1642 21.8345 30.6243 20.5864 29.5444 19.6917C28.3495 18.7068 26.8665 18.2143 25.0955 18.2143C23.7277 18.2143 22.4823 18.5527 21.3593 19.2293C20.301 19.8684 19.5055 20.7331 18.9728 21.8233C18.5481 22.7106 18.3357 23.6955 18.3357 24.7782C18.3357 26.8309 19.0484 28.4587 20.4738 29.6617C21.7264 30.7218 23.3174 31.2519 25.2467 31.2519C26.3481 31.2519 27.5143 31.0414 28.7454 30.6203ZM26.7045 22.2068C26.3373 22.1015 26.0386 22.0488 25.8083 22.0489C25.3979 22.0489 24.9911 22.156 24.588 22.3703C24.1849 22.5846 23.8393 22.8797 23.5514 23.2556C22.961 24.015 22.6658 24.8646 22.6658 25.8045C22.6658 26.3308 22.7954 26.7463 23.0546 27.0508C23.3138 27.3553 23.6665 27.5075 24.1129 27.5075C24.7608 27.5075 25.2971 27.2293 25.7218 26.6729C25.945 26.3872 26.1213 25.8346 26.2509 25.015L26.7045 22.2068Z" fill="#306279"/>
</svg>
