<svg width="28" height="28" viewBox="0 0 28 28" fill="none" xmlns="http://www.w3.org/2000/svg">
<path d="M15.4 0C15.8795 0 16.3398 0.19775 16.6705 0.546L22.2705 6.545C22.5785 6.8705 22.75 7.30275 22.75 7.75075V22.75C22.75 23.2141 22.5656 23.6592 22.2374 23.9874C21.9092 24.3156 21.4641 24.5 21 24.5H3.5C3.03587 24.5 2.59075 24.3156 2.26256 23.9874C1.93437 23.6592 1.75 23.2141 1.75 22.75V1.75C1.75 1.28587 1.93437 0.840752 2.26256 0.512563C2.59075 0.184374 3.03587 0 3.5 0L15.4 0ZM21 8.75H14.875C14.6429 8.75 14.4204 8.65781 14.2563 8.49372C14.0922 8.32962 14 8.10706 14 7.875V1.75H3.5V22.75H21V8.75ZM7.875 19.25C7.64294 19.25 7.42038 19.1578 7.25628 18.9937C7.09219 18.8296 7 18.6071 7 18.375C7 18.1429 7.09219 17.9204 7.25628 17.7563C7.42038 17.5922 7.64294 17.5 7.875 17.5H16.625C16.8571 17.5 17.0796 17.5922 17.2437 17.7563C17.4078 17.9204 17.5 18.1429 17.5 18.375C17.5 18.6071 17.4078 18.8296 17.2437 18.9937C17.0796 19.1578 16.8571 19.25 16.625 19.25H7.875ZM7.875 14C7.64294 14 7.42038 13.9078 7.25628 13.7437C7.09219 13.5796 7 13.3571 7 13.125C7 12.8929 7.09219 12.6704 7.25628 12.5063C7.42038 12.3422 7.64294 12.25 7.875 12.25H16.625C16.8571 12.25 17.0796 12.3422 17.2437 12.5063C17.4078 12.6704 17.5 12.8929 17.5 13.125C17.5 13.3571 17.4078 13.5796 17.2437 13.7437C17.0796 13.9078 16.8571 14 16.625 14H7.875ZM9.625 28C9.39294 28 9.17038 27.9078 9.00628 27.7437C8.84219 27.5796 8.75 27.3571 8.75 27.125C8.75 26.8929 8.84219 26.6704 9.00628 26.5063C9.17038 26.3422 9.39294 26.25 9.625 26.25H24.5V11.375C24.5 11.1429 24.5922 10.9204 24.7563 10.7563C24.9204 10.5922 25.1429 10.5 25.375 10.5C25.6071 10.5 25.8296 10.5922 25.9937 10.7563C26.1578 10.9204 26.25 11.1429 26.25 11.375V26.25C26.25 26.7141 26.0656 27.1592 25.7374 27.4874C25.4092 27.8156 24.9641 28 24.5 28H9.625Z" fill="#306279"/>
</svg>
