<svg width="34" height="32" viewBox="0 0 34 32" fill="none" xmlns="http://www.w3.org/2000/svg">
<path d="M23.1677 15.138C23.2967 15.0123 23.3681 14.8439 23.3665 14.6691C23.3649 14.4943 23.2904 14.327 23.1591 14.2034C23.0277 14.0798 22.8501 14.0097 22.6644 14.0082C22.4786 14.0067 22.2997 14.0739 22.1661 14.1953L17.0002 19.0573L14.6677 16.862C14.5341 16.7405 14.3552 16.6734 14.1695 16.6749C13.9837 16.6764 13.8061 16.7465 13.6748 16.8701C13.5434 16.9937 13.4689 17.1609 13.4673 17.3357C13.4657 17.5105 13.5371 17.6789 13.6661 17.8047L17.0002 20.9427L23.1677 15.138Z" fill="#306279"/>
<path fill-rule="evenodd" clip-rule="evenodd" d="M26.917 9.99998V24C26.917 24.5304 26.6931 25.0391 26.2946 25.4142C25.8961 25.7893 25.3556 26 24.792 26H12.042C11.4784 26 10.9379 25.7893 10.5394 25.4142C10.1409 25.0391 9.91699 24.5304 9.91699 24V5.33331C9.91699 4.80288 10.1409 4.29417 10.5394 3.9191C10.9379 3.54403 11.4784 3.33331 12.042 3.33331H19.8337L26.917 9.99998ZM19.8337 10.6666C19.6458 10.6666 19.4656 10.5964 19.3328 10.4714C19.2 10.3464 19.1253 10.1768 19.1253 9.99998V4.66665H12.042C11.8541 4.66665 11.674 4.73688 11.5411 4.86191C11.4083 4.98693 11.3337 5.1565 11.3337 5.33331V24C11.3337 24.1768 11.4083 24.3464 11.5411 24.4714C11.674 24.5964 11.8541 24.6666 12.042 24.6666H24.792C24.9799 24.6666 25.16 24.5964 25.2929 24.4714C25.4257 24.3464 25.5003 24.1768 25.5003 24V10.6666H19.8337ZM20.542 5.88531L24.2055 9.33331H20.542V5.88531Z" fill="#306279"/>
<path d="M8.50016 7.33331V25.3333C8.50016 25.8637 8.72405 26.3725 9.12256 26.7475C9.52108 27.1226 10.0616 27.3333 10.6252 27.3333H24.0835V28.6666H10.6252C9.68585 28.6666 8.78502 28.3155 8.12083 27.6903C7.45663 27.0652 7.0835 26.2174 7.0835 25.3333V7.33331H8.50016Z" fill="#306279"/>
</svg>
