<svg width="32" height="32" viewBox="0 0 32 32" fill="none" xmlns="http://www.w3.org/2000/svg">
<path d="M10.6667 2.66669V8.00002M21.3333 2.66669V8.00002M4 13.3334H28M28 22.6667V8.00002C28 7.29278 27.719 6.6145 27.219 6.1144C26.7189 5.6143 26.0406 5.33335 25.3333 5.33335H6.66667C5.95942 5.33335 5.28115 5.6143 4.78105 6.1144C4.28095 6.6145 4 7.29278 4 8.00002V26.6667C4 27.3739 4.28095 28.0522 4.78105 28.5523C5.28115 29.0524 5.95942 29.3334 6.66667 29.3334H21.3333L28 22.6667Z" stroke="#306279" stroke-width="2" stroke-linecap="round" stroke-linejoin="round"/>
<path d="M20 29.3334V24C20 23.2928 20.281 22.6145 20.781 22.1144C21.2811 21.6143 21.9594 21.3334 22.6667 21.3334H28" stroke="#306279" stroke-width="2" stroke-linecap="round" stroke-linejoin="round"/>
</svg>
