<svg width="28" height="28" viewBox="0 0 28 28" fill="none" xmlns="http://www.w3.org/2000/svg">
<path d="M21 23.2663L18.7337 21L17.5 22.2337L21 25.7337L27.125 19.6087L25.8913 18.375L21 23.2663ZM13.125 20.125H14.875V21.875H13.125V20.125ZM7.875 20.125H9.625V21.875H7.875V20.125ZM18.375 15.75H20.125V17.5H18.375V15.75ZM13.125 15.75H14.875V17.5H13.125V15.75ZM7.875 15.75H9.625V17.5H7.875V15.75ZM18.375 11.375H20.125V13.125H18.375V11.375ZM13.125 11.375H14.875V13.125H13.125V11.375ZM7.875 11.375H9.625V13.125H7.875V11.375ZM7.875 6.125H20.125V8.75H7.875V6.125Z" fill="#306279"/>
<path d="M14.875 26.25H5.25438C4.78923 26.2495 4.34327 26.0646 4.01436 25.7356C3.68545 25.4067 3.50046 24.9608 3.5 24.4956V3.4965C3.50092 3.03358 3.68523 2.58989 4.01256 2.26256C4.33989 1.93523 4.78358 1.75092 5.2465 1.75H22.7535C23.2164 1.75092 23.6601 1.93523 23.9874 2.26256C24.3148 2.58989 24.4991 3.03358 24.5 3.4965V15.75H22.75V3.5H5.25V24.5H14.875V26.25Z" fill="#306279"/>
</svg>
